<svg width="25" height="25" viewBox="0 0 25 25" fill="none" xmlns="http://www.w3.org/2000/svg">
<path d="M10.1146 11.7604C9.91843 11.5643 9.6524 11.4541 9.375 11.4541C9.0976 11.4541 8.83157 11.5643 8.63542 11.7604C8.43927 11.9566 8.32907 12.2226 8.32907 12.5C8.32907 12.7774 8.43927 13.0434 8.63542 13.2396L11.7604 16.3646C11.8577 16.4611 11.9732 16.5375 12.1001 16.5893C12.227 16.6412 12.3629 16.6675 12.5 16.6667C12.6426 16.6621 12.7828 16.6284 12.9118 16.5675C13.0408 16.5065 13.1559 16.4198 13.25 16.3125L20.5417 7.97917C20.71 7.77014 20.7912 7.50418 20.7683 7.23676C20.7453 6.96933 20.6201 6.72108 20.4186 6.54376C20.2171 6.36645 19.9549 6.27375 19.6867 6.28501C19.4186 6.29626 19.1651 6.41059 18.9792 6.60417L12.5 14.1042L10.1146 11.7604Z" fill="#5FB536"/>
<path d="M21.875 11.4583C21.5987 11.4583 21.3338 11.5681 21.1384 11.7634C20.9431 11.9588 20.8333 12.2237 20.8333 12.5C20.8333 14.7101 19.9554 16.8298 18.3926 18.3926C16.8298 19.9554 14.7101 20.8333 12.5 20.8333C10.8543 20.8326 9.24559 20.3446 7.87684 19.4308C6.50809 18.517 5.44055 17.2184 4.80884 15.6987C4.17713 14.1791 4.00953 12.5064 4.32718 10.8916C4.64484 9.27677 5.43351 7.79218 6.59376 6.62501C7.36532 5.84312 8.28509 5.22297 9.29923 4.80086C10.3134 4.37874 11.4015 4.16315 12.5 4.16668C13.1661 4.17085 13.8298 4.24769 14.4792 4.39584C14.6151 4.43788 14.7582 4.45163 14.8996 4.43626C15.041 4.42088 15.1778 4.37671 15.3015 4.30645C15.4252 4.23619 15.5331 4.14134 15.6188 4.02774C15.7044 3.91415 15.7659 3.78422 15.7994 3.64596C15.8329 3.50771 15.8377 3.36405 15.8135 3.22386C15.7894 3.08367 15.7368 2.94992 15.659 2.83083C15.5811 2.71175 15.4797 2.60988 15.361 2.53148C15.2423 2.45308 15.1088 2.39983 14.9688 2.37501C14.1595 2.18464 13.3313 2.08679 12.5 2.08334C10.442 2.09403 8.43333 2.71409 6.7274 3.86527C5.02147 5.01645 3.69477 6.64716 2.91472 8.55161C2.13466 10.4561 1.93622 12.5489 2.34442 14.566C2.75262 16.5831 3.74919 18.4341 5.20834 19.8854C7.1424 21.8204 9.76423 22.9103 12.5 22.9167C15.2627 22.9167 17.9122 21.8192 19.8657 19.8657C21.8192 17.9122 22.9167 15.2627 22.9167 12.5C22.9167 12.2237 22.8069 11.9588 22.6116 11.7634C22.4162 11.5681 22.1513 11.4583 21.875 11.4583Z" fill="#5FB536"/>
</svg>
